<svg width="18" height="18" viewBox="0 0 18 18" fill="none" xmlns="http://www.w3.org/2000/svg">
<g id="Group 422">
<path id="Vector" d="M17.4837 10.9425C17.3586 10.9425 17.2386 10.9925 17.1501 11.0814C17.0617 11.1704 17.0119 11.291 17.0119 11.4168V15.6284C17.0115 16.0056 16.8623 16.3673 16.5969 16.6341C16.3316 16.9009 15.9719 17.0509 15.5966 17.0513H2.3589C1.98366 17.0509 1.62391 16.9009 1.35857 16.6341C1.09324 16.3673 0.943984 16.0056 0.943559 15.6284V3.26808C0.943984 2.89082 1.09324 2.52913 1.35857 2.26237C1.62391 1.99561 1.98366 1.84555 2.3589 1.84512H6.54788C6.673 1.84512 6.793 1.79515 6.88148 1.7062C6.96995 1.61725 7.01966 1.4966 7.01966 1.3708C7.01966 1.24501 6.96995 1.12436 6.88148 1.03541C6.793 0.946457 6.673 0.896484 6.54788 0.896484H2.3589C1.7335 0.8972 1.13392 1.14729 0.691691 1.5919C0.249466 2.03651 0.00071174 2.63931 0 3.26808V15.6284C0.00071174 16.2572 0.249466 16.86 0.691691 17.3046C1.13392 17.7492 1.7335 17.9993 2.3589 18H15.5966C16.222 17.9993 16.8216 17.7492 17.2638 17.3046C17.706 16.86 17.9548 16.2572 17.9555 15.6284V11.4169C17.9555 11.3546 17.9433 11.2929 17.9196 11.2354C17.8959 11.1778 17.8612 11.1255 17.8173 11.0815C17.7735 11.0374 17.7215 11.0025 17.6643 10.9786C17.607 10.9548 17.5457 10.9425 17.4837 10.9425Z" fill="#1D5EDD"/>
<path id="Vector_2" d="M14.2661 1.52068L7.37744 8.44641L9.59907 10.68L16.4877 3.75427L14.2661 1.52068Z" fill="#1D5EDD"/>
<path id="Vector_3" d="M6.25293 11.8102L8.70807 11.1264L6.93305 9.3418L6.25293 11.8102Z" fill="#1D5EDD"/>
<path id="Vector_4" d="M17.1015 0.346775C16.8801 0.124713 16.5802 0 16.2675 0C15.9548 0 15.6548 0.124713 15.4335 0.346775L14.9331 0.849838L17.1548 3.08346L17.6551 2.58039C17.876 2.35783 18 2.05629 18 1.74191C18 1.42754 17.876 1.12599 17.6551 0.903436L17.1015 0.346775Z" fill="#1D5EDD"/>
</g>
</svg>
