<svg width="14" height="20" viewBox="0 0 14 20" fill="none" xmlns="http://www.w3.org/2000/svg">
<path id="Vector" d="M3.00001 0H11C11.7957 0 12.5587 0.316071 13.1213 0.87868C13.6839 1.44129 14 2.20435 14 3V19C14.0007 19.1762 13.9548 19.3495 13.867 19.5023C13.7792 19.655 13.6526 19.7819 13.5 19.87C13.3476 19.9564 13.1752 20.0012 13 20C12.8248 20.0012 12.6524 19.9564 12.5 19.87L7.00001 16.69L1.50001 19.87C1.34799 19.9578 1.17554 20.004 1.00001 20.004C0.824471 20.004 0.652027 19.9578 0.500008 19.87C0.347404 19.7819 0.220789 19.655 0.132986 19.5023C0.0451825 19.3495 -0.000691684 19.1762 7.88292e-06 19V3C7.88292e-06 2.20435 0.316078 1.44129 0.878688 0.87868C1.4413 0.316071 2.20436 0 3.00001 0Z" fill="#282828"/>
</svg>
