<svg width="24" height="24" viewBox="0 0 24 24" fill="none" xmlns="http://www.w3.org/2000/svg">
<mask id="mask0_0_2583" style="mask-type:alpha" maskUnits="userSpaceOnUse" x="0" y="0" width="24" height="24">
<path d="M0 0H24V24H0V0Z" fill="#D9D9D9"/>
</mask>
<g mask="url(#mask0_0_2583)">
<path d="M11.5865 21.5C12.6865 21.5 13.5865 20.6 13.5865 19.5H9.58648C9.58648 20.6 10.4765 21.5 11.5865 21.5ZM17.5865 15.5V10.5C17.5865 7.43 15.9465 4.86 13.0865 4.18V3.5C13.0865 2.67 12.4165 2 11.5865 2C10.7565 2 10.0865 2.67 10.0865 3.5V4.18C7.21648 4.86 5.58648 7.42 5.58648 10.5V15.5L4.29648 16.79C3.66648 17.42 4.10648 18.5 4.99648 18.5H18.1665C19.0565 18.5 19.5065 17.42 18.8765 16.79L17.5865 15.5Z" fill="#282828"/>
<circle cx="16.5" cy="4.5" r="2.5" fill="#FF8500"/>
</g>
</svg>
